<svg viewBox="0 0 20 20" fill="none" xmlns="http://www.w3.org/2000/svg"><path d="M7.5 2.5 5.975 4.167H3.333c-.916 0-1.666.75-1.666 1.666v10c0 .917.75 1.667 1.666 1.667h13.334c.916 0 1.666-.75 1.666-1.667v-10c0-.916-.75-1.666-1.666-1.666h-2.642L12.5 2.5h-5ZM10 15a4.168 4.168 0 0 1-4.167-4.167c0-2.3 1.867-4.166 4.167-4.166s4.167 1.866 4.167 4.166C14.167 13.133 12.3 15 10 15Z" fill="#342A41" stroke="#6C5B87" stroke-linecap="square" stroke-linejoin="bevel"/><path d="m10 14.167 1.042-2.292 2.291-1.042-2.291-1.041L10 7.5 8.958 9.792l-2.291 1.041 2.291 1.042L10 14.167Z" fill="#6E5C8A"/></svg>