<svg width="122" height="121" viewBox="0 0 122 121" fill="none" xmlns="http://www.w3.org/2000/svg">
<path d="M121.103 120.8H60.914H0V59.7996V0H60.103H121.103V60.394V120.8Z" fill="#A08FBD"/>
<path d="M121.103 120.8V101.659H106.493L98.9707 93.3622L91.4108 101.659H43.2402V62.9916H27.6928L46.9777 19.457H65.5762L72.2153 34.3712V19.457H95.2366L99.2338 30.6958L103.257 19.457H121.103V0H0V120.8H121.103ZM108.954 96.8176H121.103L105.032 79.8176L121.103 63.011H109.147L99.2221 73.8293L89.3927 63.011H77.2408L93.2179 79.9143L77.2408 96.8176H89.0546L99.0281 85.9028L108.954 96.8176ZM111.796 79.8319L121.103 89.7083V70.0379L111.796 79.8319ZM57.6323 88.9938V83.7294H76.7561V76.0987H57.6323V70.835H77.2401V63.011H48.3844V96.8176H77.2401V88.9938H57.6323ZM111.952 58.105H121.103V24.2984H106.868L99.2665 45.3546L91.7138 24.2984H77.2376V58.105H86.3879V34.4406L95.1032 58.105H103.237L111.952 34.3918V58.105ZM66.8281 58.105H77.2376L62.2778 24.2984H50.3671L35.4058 58.105H45.5734L48.382 51.3439H63.9716L66.8281 58.105ZM60.7766 43.7613H51.5769L56.1769 32.7018L60.7766 43.7613Z" fill="#483663"/>
</svg>
