<svg width="268" height="174" viewBox="0 0 268 174" fill="none" xmlns="http://www.w3.org/2000/svg">
<mask id="mask0" mask-type="alpha" maskUnits="userSpaceOnUse" x="0" y="0" width="268" height="174">
<path d="M0.600586 1.95423e-05H267.32V174H0.600586V1.95423e-05Z" fill="white"/>
</mask>
<g mask="url(#mask0)">
<mask id="mask1" mask-type="alpha" maskUnits="userSpaceOnUse" x="-2319" y="17" width="4916" height="144">
<path d="M-2318.86 160.233H2596.39V17.6406H-2318.86V160.233Z" fill="white"/>
</mask>
<g mask="url(#mask1)">
<path fill-rule="evenodd" clip-rule="evenodd" d="M199.515 88.963H181.138C179.094 88.963 177.431 87.3261 177.431 85.277C177.431 83.2279 179.094 81.424 181.138 81.424H209.116V67.5522H181.138C171.373 67.5522 163.428 75.5538 163.428 85.3443C163.428 95.1347 171.373 103.136 181.138 103.136H199.265C201.309 103.136 202.972 104.767 202.972 106.816C202.972 108.865 201.309 110.374 199.265 110.374H160.394C157.094 116.706 153.885 122.135 147.37 124.849H199.515C209.116 124.71 216.969 116.543 216.969 106.839C216.969 97.1359 209.116 89.102 199.515 88.963Z" fill="#A08FBD"/>
<path fill-rule="evenodd" clip-rule="evenodd" d="M129.068 110.374H114.908V96.09C114.908 88.1084 121.231 81.6146 129.068 81.6146C136.906 81.6146 143.283 88.1084 143.283 96.09C143.283 104.072 136.906 110.374 129.068 110.374ZM129.068 67.5522C113.493 67.5522 100.807 80.3791 100.807 96.1401V96.7432V155.608H114.908V124.849H129.039C144.615 124.849 157.256 111.851 157.256 96.09C157.256 80.329 144.644 67.5522 129.068 67.5522Z" fill="#A08FBD"/>
<path fill-rule="evenodd" clip-rule="evenodd" d="M56.1652 124.847C42.8322 124.847 31.6228 115.298 28.5896 102.822C28.5896 102.822 27.7132 98.6973 27.7132 95.9812C27.7132 93.265 28.5428 89.0977 28.5428 89.0977C31.5979 76.653 42.7935 67.386 56.1045 67.386C71.76 67.386 84.6063 80.1776 84.6063 95.913V102.833H43.0128C45.4691 107.658 50.4365 110.372 56.1652 110.372H93.5556L93.6069 69.5654C93.6069 63.4815 88.6551 58.5039 82.6021 58.5039H29.607C23.554 58.5039 18.6016 63.3307 18.6016 69.4146V122.682C18.6016 128.766 23.554 133.894 29.607 133.894H82.6021C88.034 133.894 92.5653 129.974 93.4407 124.847H56.1652Z" fill="#6E5C8A"/>
<path fill-rule="evenodd" clip-rule="evenodd" d="M56.1047 80.9253C50.3983 80.9253 45.4357 84.4367 42.9695 88.9601H69.2405C66.7744 84.4367 61.812 80.9253 56.1047 80.9253Z" fill="#6E5C8A"/>
<path fill-rule="evenodd" clip-rule="evenodd" d="M80.1057 41.1806C80.1057 28.18 69.3565 17.6411 56.0971 17.6411C43.0573 17.6411 32.4518 27.8353 32.1035 40.5379C32.0978 40.5916 32.1023 40.6438 32.1023 40.699V47.773C32.1023 48.6191 32.7878 49.4557 33.6507 49.4557H42.4836C43.3465 49.4557 44.1031 48.6191 44.1031 47.773V41.1806C44.1031 34.6886 49.4825 29.4068 56.104 29.4068C62.7255 29.4068 68.1048 34.6886 68.1048 41.1806V47.773C68.1048 48.6191 68.8048 49.4557 69.6677 49.4557H78.5009C79.3637 49.4557 80.1057 48.6191 80.1057 47.773V41.1806Z" fill="#6E5C8A"/>
<path fill-rule="evenodd" clip-rule="evenodd" d="M141.413 140.95C141.413 141.574 141.892 141.859 142.407 141.859C142.956 141.859 143.684 141.413 143.684 140.593C143.684 140.005 143.258 139.685 142.779 139.685C142.141 139.685 141.413 140.094 141.413 140.95ZM137.157 140.968C137.157 141.574 137.618 141.859 138.115 141.859C138.735 141.859 139.41 141.413 139.41 140.575C139.41 139.987 139.019 139.685 138.505 139.685C137.867 139.685 137.157 140.094 137.157 140.968ZM144.89 143.243L143.613 150.51C142.974 154.183 140.58 155.865 137.334 155.865C134.585 155.865 132.457 154.064 133.078 150.516L134.355 143.243H136.324L135.046 150.51C134.656 152.775 135.667 154.064 137.583 154.064C139.551 154.064 141.236 152.887 141.644 150.516L142.921 143.243H144.89Z" fill="#A08FBD"/>
<path fill-rule="evenodd" clip-rule="evenodd" d="M148.264 151.717C148.194 153.179 149.133 154.124 150.499 154.124C152.219 154.124 153.886 152.786 153.993 150.755C154.063 149.275 153.106 148.401 151.775 148.401C150.073 148.401 148.37 149.774 148.264 151.717ZM149.648 143.243L148.761 148.264C149.523 147.231 151.049 146.684 152.113 146.684C154.312 146.684 155.837 147.98 155.837 150.386C155.837 153.791 153.478 155.838 150.463 155.838C149.293 155.838 148.299 155.401 147.697 154.296L147.36 155.607H145.639L147.821 143.243H149.648Z" fill="#A08FBD"/>
<path fill-rule="evenodd" clip-rule="evenodd" d="M165.027 150.478C165.169 148.97 164.282 148.356 162.81 148.356C161.481 148.356 160.257 148.97 159.724 150.478H165.027ZM159.423 151.986C159.352 153.192 160.292 154.177 161.888 154.177C162.775 154.177 163.945 153.828 164.584 153.222L165.577 154.376C164.495 155.374 162.899 155.87 161.551 155.87C159.033 155.87 157.561 154.355 157.561 152.037C157.561 148.953 159.973 146.655 163.059 146.655C165.879 146.655 167.475 148.367 166.517 151.986H159.423Z" fill="#A08FBD"/>
<path fill-rule="evenodd" clip-rule="evenodd" d="M171.398 146.862L171.309 148.025C172.161 146.901 173.19 146.671 174.129 146.671C174.981 146.671 175.743 146.975 176.151 147.42L175.052 149.025C174.662 148.67 174.272 148.491 173.597 148.491C172.338 148.491 171.097 149.25 170.813 150.873L169.98 155.608H168.153L169.696 146.862H171.398Z" fill="#A08FBD"/>
<path fill-rule="evenodd" clip-rule="evenodd" d="M184.95 146.858L185.872 153.774L189.207 146.858H191.246L186.671 155.604H184.525L183.656 149.834L182.254 152.701L180.729 155.604H178.601L177.058 146.858H179.115L180.02 153.774L183.372 146.858H184.95Z" fill="#A08FBD"/>
<path fill-rule="evenodd" clip-rule="evenodd" d="M199.197 150.478C199.338 148.97 198.452 148.356 196.979 148.356C195.65 148.356 194.426 148.97 193.893 150.478H199.197ZM193.592 151.986C193.521 153.192 194.461 154.177 196.057 154.177C196.944 154.177 198.114 153.828 198.753 153.222L199.746 154.376C198.665 155.374 197.068 155.87 195.721 155.87C193.202 155.87 191.73 154.355 191.73 152.037C191.73 148.953 194.142 146.655 197.228 146.655C200.048 146.655 201.644 148.367 200.686 151.986H193.592Z" fill="#A08FBD"/>
<path fill-rule="evenodd" clip-rule="evenodd" d="M204.076 144.479C204.076 145.102 204.537 145.424 205.034 145.424C205.743 145.424 206.399 144.96 206.399 144.087C206.399 143.498 205.956 143.159 205.477 143.159C204.821 143.159 204.076 143.588 204.076 144.479ZM205.69 146.861L204.147 155.606H202.32L203.863 146.861H205.69Z" fill="#A08FBD"/>
<path fill-rule="evenodd" clip-rule="evenodd" d="M213.798 149.023C213.231 148.381 212.504 148.203 211.635 148.203C210.428 148.203 209.577 148.613 209.577 149.379C209.577 150.021 210.268 150.289 211.297 150.378C212.894 150.52 214.933 151.055 214.507 153.319C214.206 154.959 212.574 155.922 210.304 155.922C208.886 155.922 207.52 155.601 206.598 154.3L207.786 152.998C208.442 153.907 209.595 154.282 210.623 154.3C211.492 154.3 212.521 153.979 212.681 153.159C212.841 152.374 212.149 152.072 210.872 151.946C209.382 151.804 207.751 151.252 207.751 149.593C207.751 147.401 210.109 146.634 211.883 146.634C213.231 146.634 214.224 146.937 215.04 147.811L213.798 149.023Z" fill="#A08FBD"/>
<path fill-rule="evenodd" clip-rule="evenodd" d="M219.564 146.858L218.73 151.568C218.464 153.066 219.139 154.101 220.664 154.101C222.1 154.101 223.324 152.904 223.572 151.443L224.37 146.858H226.197L224.654 155.604H223.005L223.129 154.336C222.1 155.317 221.089 155.779 219.865 155.779C217.719 155.779 216.443 154.233 216.903 151.578L217.737 146.858H219.564Z" fill="#A08FBD"/>
<path fill-rule="evenodd" clip-rule="evenodd" d="M234.217 155.606L235.051 150.925C235.316 149.409 234.803 148.406 233.135 148.406C231.681 148.406 230.457 149.581 230.209 151.025L229.411 155.606H227.584L229.127 146.861H230.794L230.67 148.139C231.681 147.194 232.727 146.728 233.862 146.728C235.99 146.728 237.374 148.216 236.895 150.909L236.062 155.606H234.217Z" fill="#A08FBD"/>
<path fill-rule="evenodd" clip-rule="evenodd" d="M240.922 151.77C240.922 153.267 241.898 154.176 243.3 154.176C247.076 154.176 248.088 148.347 244.309 148.347C242.518 148.347 240.922 149.684 240.922 151.77ZM240.408 156.812C240.284 158.018 241.206 158.506 242.749 158.506C244.097 158.506 245.552 157.75 245.889 155.825L246.155 154.323C245.357 155.446 243.902 155.889 242.821 155.889C240.585 155.889 239.025 154.552 239.025 152.127C239.025 148.669 241.578 146.672 244.469 146.672C245.693 146.672 246.793 147.256 247.183 148.254L247.485 146.861H249.258L247.733 155.866C247.166 159.2 244.7 160.235 242.448 160.235C239.752 160.235 238.263 158.923 238.634 156.812H240.408Z" fill="#A08FBD"/>
</g>
</g>
</svg>
