<svg width="285" height="121" viewBox="0 0 285 121" fill="none" xmlns="http://www.w3.org/2000/svg">
<path fill-rule="evenodd" clip-rule="evenodd" d="M0.0926514 21.7085C0.0926514 9.72007 9.97112 0 22.1505 0H262.543C274.727 0 284.601 9.72007 284.601 21.7085V99.2867C284.601 111.268 274.727 120.99 262.543 120.99H22.1505C9.97112 120.99 0.0926514 111.268 0.0926514 99.2867V21.7085Z" fill="#483663"/>
<path fill-rule="evenodd" clip-rule="evenodd" d="M9.146 22.4522V98.552C9.146 106.042 15.3206 112.117 22.9371 112.117H148.881V8.88721H22.9371C15.3206 8.88721 9.146 14.962 9.146 22.4522ZM181.423 60.122C181.423 64.9671 178.999 68.2971 174.987 68.2971C171.443 68.2971 168.489 64.9671 168.489 60.5301C168.489 55.9758 171.087 52.5898 174.987 52.5898C179.123 52.5898 181.423 56.0931 181.423 60.122ZM157.866 87.9105H168.489V71.387H168.607C170.619 75.0077 174.637 76.3495 178.355 76.3495C187.503 76.3495 192.403 68.8786 192.403 59.8872C192.403 52.5337 187.741 44.5303 179.237 44.5303C174.399 44.5303 169.913 46.4589 167.782 50.7224H167.663V45.2363H157.866V87.9105ZM206.911 66.0164C206.911 63.0998 209.742 61.9945 213.348 61.9945C214.94 61.9945 216.478 62.1049 217.835 62.1679C217.835 65.7273 215.296 69.348 211.279 69.348C208.799 69.348 206.911 68.1236 206.911 66.0164ZM228.338 75.6506C227.869 73.2596 227.75 70.8615 227.75 68.4705V57.1441C227.75 47.862 220.964 44.5303 213.111 44.5303C208.567 44.5303 204.612 45.1731 200.832 46.6936L201.013 53.8194C203.955 52.1816 207.386 51.5387 210.81 51.5387C214.641 51.5387 217.771 52.6511 217.835 56.7973C216.478 56.5626 214.584 56.3838 212.873 56.3838C207.211 56.3838 196.996 57.4962 196.996 66.7766C196.996 73.3769 202.425 76.3495 208.505 76.3495C212.873 76.3495 215.828 74.6626 218.247 70.8615H218.366C218.366 72.4433 218.54 74.0127 218.603 75.6506H228.338ZM233.119 87.9105C235.305 88.38 237.487 88.6165 239.729 88.6165C249.471 88.6165 251.77 81.1999 254.782 73.5503L266.061 45.2363H255.432L249.115 65.0845H248.997L242.384 45.2363H230.937L243.391 76.3495C242.622 79.0366 240.617 80.557 238.017 80.557C236.536 80.557 235.243 80.3783 233.824 79.9142L233.119 87.9105Z" fill="#A08FBD"/>
<path fill-rule="evenodd" clip-rule="evenodd" d="M35.0975 60.1831C35.0975 56.0369 37.1664 52.5895 41.1216 52.5895C45.9023 52.5895 47.9075 56.3836 47.9075 59.7696C47.9075 64.4414 44.8962 67.5926 41.1216 67.5926C37.9351 67.5926 35.0975 64.9108 35.0975 60.1831ZM58.1808 45.236H48.5575V50.7222H48.4459C46.1963 46.9842 42.5333 44.53 37.9918 44.53C28.4304 44.53 24.1191 51.309 24.1191 60.3564C24.1191 69.3478 29.3745 75.6503 37.8093 75.6503C42.0657 75.6503 45.6083 74.0125 48.1447 70.4532H48.2634V72.0909C48.2634 78.0431 44.9582 80.9037 38.8225 80.9037C34.3925 80.9037 31.6736 79.97 28.4304 78.3953L27.899 86.6876C30.3735 87.5652 34.5662 88.6163 39.6479 88.6163C52.0451 88.6163 58.1808 84.5856 58.1808 72.0909V45.236ZM76.1398 32.5679H65.5121V40.2735H76.1398V32.5679ZM65.5175 75.6503H76.1398V45.236H65.5175V75.6503ZM105.727 44.8822C104.664 44.7105 103.364 44.53 102.128 44.53C97.5227 44.53 94.8676 46.9842 93.036 50.8396H92.9173V45.236H83.2374V75.6503H93.8615V62.8105C93.8615 56.8531 96.6406 53.2937 101.597 53.2937C102.84 53.2937 104.014 53.2937 105.196 53.6388L105.727 44.8822ZM124.023 68.9957C119.124 68.9957 117.119 64.9669 117.119 60.4738C117.119 55.9195 119.124 51.8906 124.023 51.8906C128.928 51.8906 130.934 55.9195 130.934 60.4738C130.934 64.9669 128.928 68.9957 124.023 68.9957ZM124.023 76.3492C134.178 76.3492 141.913 70.5162 141.913 60.4738C141.913 50.3702 134.178 44.53 124.023 44.53C113.87 44.53 106.14 50.3702 106.14 60.4738C106.14 70.5162 113.87 76.3492 124.023 76.3492Z" fill="#483663"/>
</svg>
