<svg width="148" height="128" viewBox="0 0 148 128" fill="none" xmlns="http://www.w3.org/2000/svg">
<path fill-rule="evenodd" clip-rule="evenodd" d="M17.3269 72.0566H40.8828V111.123H17.3269V72.0566Z" fill="#6E5C8A"/>
<mask id="mask0" mask-type="alpha" maskUnits="userSpaceOnUse" x="0" y="0" width="148" height="128">
<path d="M0.987061 0H147.987V128H0.987061" fill="white"/>
</mask>
<g mask="url(#mask0)">
<path fill-rule="evenodd" clip-rule="evenodd" d="M42.6613 52.5248C42.6613 59.8795 36.691 65.8452 29.3273 65.8452C21.9639 65.8452 15.9934 59.8795 15.9934 52.5248C15.9934 45.1701 21.9639 39.207 29.3273 39.207C36.691 39.207 42.6613 45.1701 42.6613 52.5248Z" fill="#6E5C8A"/>
<path fill-rule="evenodd" clip-rule="evenodd" d="M83.9023 8.5023C100.282 8.5023 113.933 12.9347 123.38 21.3204C134.059 30.7997 139.474 45.1616 139.474 64.0073C139.474 101.356 121.297 119.512 83.9023 119.512H9.49969V8.5023H83.9023ZM85.5014 0H0.987061V128.015H85.5014V127.99C103.962 127.739 118.587 123.159 128.965 114.339C141.587 103.614 147.987 86.6795 147.987 64.0073C147.987 53.1695 146.304 43.4482 142.984 35.1138C139.808 27.1408 135.115 20.3618 129.035 14.9648C118.326 5.45969 103.295 0.320172 85.5014 0.0281791V0Z" fill="#6E5C8A"/>
</g>
<path fill-rule="evenodd" clip-rule="evenodd" d="M81.5771 111.167H51.698V18.8535H81.5771H80.3712C105.289 18.8535 131.813 28.6756 131.813 65.1316C131.813 103.672 105.289 111.167 80.3712 111.167H81.5771Z" fill="#A08FBD"/>
<path fill-rule="evenodd" clip-rule="evenodd" d="M51.0323 46.4484V61.13H54.3919C55.6483 61.13 56.5553 61.0595 57.1128 60.9184C57.8424 60.7369 58.4478 60.4294 58.9294 59.996C59.4104 59.5626 59.8035 58.8494 60.1075 57.8566C60.4115 56.8637 60.5635 55.5104 60.5635 53.7968C60.5635 52.0833 60.4115 50.7678 60.1075 49.8503C59.8035 48.9333 59.3778 48.2176 58.8306 47.7036C58.2834 47.1893 57.589 46.8417 56.7479 46.66C56.1195 46.5191 54.8883 46.4484 53.0542 46.4484H51.0323ZM46.5481 42.6831H54.7516C56.6018 42.6831 58.0119 42.8245 58.9826 43.1072C60.2865 43.4911 61.4036 44.173 62.3337 45.1529C63.2637 46.1326 63.9713 47.3322 64.4567 48.7513C64.9419 50.1705 65.1847 51.9205 65.1847 54.0011C65.1847 55.8296 64.957 57.4052 64.5022 58.7284C63.9462 60.3448 63.1526 61.6527 62.1216 62.6528C61.3431 63.4105 60.2916 64.0013 58.9673 64.4254C57.9764 64.7388 56.6523 64.8953 54.9943 64.8953H46.5481V42.6831Z" fill="#342A4F"/>
<path fill-rule="evenodd" clip-rule="evenodd" d="M54.7515 43.2898C56.5353 43.2898 57.9014 43.4241 58.812 43.6897C60.004 44.0404 61.0411 44.6733 61.8924 45.5701C62.7573 46.4813 63.4263 47.6175 63.8812 48.947C64.3425 50.2964 64.5765 51.9967 64.5765 54.0005C64.5765 55.753 64.3579 57.2771 63.9269 58.5306C63.4049 60.0481 62.6549 61.2882 61.6978 62.2164C60.99 62.9054 60.0091 63.4534 58.7816 63.8467C57.8569 64.1389 56.5819 64.2873 54.9942 64.2873H47.156V43.2898H54.7515ZM45.9399 42.0752V65.502H54.9942C56.7065 65.502 58.105 65.3343 59.1506 65.004C60.5612 64.5521 61.7029 63.9077 62.5459 63.0871C63.6406 62.0255 64.4924 60.625 65.0771 58.9253C65.5518 57.5443 65.7926 55.8873 65.7926 54.0005C65.7926 51.8628 65.5365 50.0304 65.0318 48.5544C64.5203 47.0583 63.761 45.7732 62.7748 44.7342C61.7742 43.6804 60.5561 42.9366 59.1542 42.5241C58.1171 42.2219 56.6773 42.0752 54.7515 42.0752H45.9399Z" fill="#342A4F"/>
<path fill-rule="evenodd" clip-rule="evenodd" d="M53.0542 47.0549C55.2714 47.0549 56.2144 47.1621 56.6147 47.2517C57.3473 47.4101 57.9509 47.7101 58.414 48.1452C58.8842 48.5868 59.2597 49.2245 59.5304 50.0405C59.8123 50.8919 59.9555 52.1554 59.9555 53.7961C59.9555 55.4414 59.8108 56.7473 59.526 57.6782C59.2563 58.5593 58.9185 59.1872 58.5223 59.5443C58.118 59.9082 57.5944 60.1721 56.9659 60.3283C56.4576 60.457 55.5925 60.5219 54.3919 60.5219H51.6404V47.0549H53.0542ZM50.4243 45.8403V61.7365H54.3919C55.7114 61.7365 56.6505 61.6612 57.2621 61.5062C58.0837 61.3021 58.7823 60.945 59.3366 60.4463C59.9067 59.9328 60.3491 59.1435 60.6888 58.0331C61.0138 56.9728 61.1716 55.5866 61.1716 53.7961C61.1716 52.0006 61.0123 50.6473 60.6847 49.6588C60.35 48.649 59.8663 47.842 59.2473 47.2605C58.621 46.6721 57.8235 46.2703 56.8766 46.0655C56.202 45.9142 54.9501 45.8403 53.0542 45.8403H50.4243Z" fill="#342A4F"/>
<path fill-rule="evenodd" clip-rule="evenodd" d="M70.2583 64.8953V42.6831H86.7212V46.4484H74.7428V51.3676H85.8851V55.1329H74.7428V61.13H87.1469V64.8953H70.2583Z" fill="#342A4F"/>
<path fill-rule="evenodd" clip-rule="evenodd" d="M86.1136 43.2898V45.8405H74.1351V51.9743H85.2774V54.525H74.1351V61.7367H86.5392V64.2873H70.8667V43.2898H86.1136ZM69.6506 42.0752V65.502H87.7553V60.522H75.3512V55.7396H86.4935V50.7597H75.3512V47.0551H87.3297V42.0752H69.6506Z" fill="#342A4F"/>
<path fill-rule="evenodd" clip-rule="evenodd" d="M103.993 56.0893L100.927 47.8603L97.9233 56.0893H103.993ZM112.26 64.8953H107.375L105.434 59.8546H96.5492L94.7085 64.8953H89.9443L98.5866 42.6831H103.366L112.26 64.8953Z" fill="#342A4F"/>
<path fill-rule="evenodd" clip-rule="evenodd" d="M102.955 43.2898C103.239 43.9991 110.755 62.7717 111.362 64.2873H107.792C107.537 63.6244 105.852 59.2467 105.852 59.2467H96.1241C96.1241 59.2467 94.5305 63.6103 94.2834 64.2873H90.8333C91.4193 62.7815 98.7229 44.0094 99.003 43.2898H102.955ZM98.1707 42.0752L89.0562 65.502H95.1342C95.1342 65.502 96.7277 61.1383 96.9748 60.4613H105.017C105.272 61.1245 106.957 65.502 106.957 65.502H113.158L103.778 42.0752H98.1707Z" fill="#342A4F"/>
<path fill-rule="evenodd" clip-rule="evenodd" d="M100.933 49.6167C101.599 51.4055 102.726 54.4299 103.118 55.4813H98.792C99.1743 54.4343 100.279 51.4089 100.933 49.6167ZM97.0544 56.6959H104.868L100.921 46.1025L97.0544 56.6959Z" fill="#342A4F"/>
<path fill-rule="evenodd" clip-rule="evenodd" d="M116.011 64.8952V42.8652H120.495V61.1299H131.668V64.8952H116.011Z" fill="#342A4F"/>
<path fill-rule="evenodd" clip-rule="evenodd" d="M119.888 43.4724V61.7371H131.06V64.2878H116.619V43.4724H119.888ZM115.403 42.2578V65.5024H132.276V60.5225H121.104V42.2578H115.403Z" fill="#342A4F"/>
</svg>
