<svg width="231" height="125" viewBox="0 0 231 125" fill="none" xmlns="http://www.w3.org/2000/svg">
<path fill-rule="evenodd" clip-rule="evenodd" d="M96.8142 75.3208H133.973V9.01562H96.8142V75.3208Z" fill="#6E5C8A"/>
<path fill-rule="evenodd" clip-rule="evenodd" d="M99.1734 42.1684C99.1734 28.7167 105.516 16.7362 115.393 9.01467C108.17 3.36879 99.0554 0 89.1489 0C65.6967 0 46.6858 18.8786 46.6858 42.1684C46.6858 65.4571 65.6967 84.3357 89.1489 84.3357C99.0554 84.3357 108.17 80.9669 115.393 75.321C105.516 67.5995 99.1734 55.619 99.1734 42.1684Z" fill="#483663"/>
<path fill-rule="evenodd" clip-rule="evenodd" d="M182.775 68.298V66.6616H182.344L181.85 67.7873L181.354 66.6616H180.924V68.298H181.228V67.0634L181.692 68.1281H182.007L182.472 67.061V68.298H182.775ZM180.05 68.298V66.9404H180.601V66.664H179.197V66.9404H179.748V68.298H180.05Z" fill="#A08FBD"/>
<path fill-rule="evenodd" clip-rule="evenodd" d="M184.101 42.1684C184.101 65.4571 165.09 84.3357 141.638 84.3357C131.731 84.3357 122.616 80.9669 115.393 75.321C125.27 67.5995 131.613 55.619 131.613 42.1684C131.613 28.7167 125.27 16.7362 115.393 9.01467C122.616 3.36879 131.731 0 141.638 0C165.09 0 184.101 18.8786 184.101 42.1684Z" fill="#A08FBD"/>
<path fill-rule="evenodd" clip-rule="evenodd" d="M32.4604 123.827V111.103C32.4604 106.225 29.4901 103.044 24.3983 103.044C21.8524 103.044 19.0943 103.892 17.1849 106.649C15.6998 104.316 13.5782 103.044 10.3958 103.044C8.27421 103.044 6.15262 103.68 4.45534 106.013V103.468H0V123.827H4.45534V112.587C4.45534 108.982 6.36478 107.285 9.335 107.285C12.3052 107.285 13.7903 109.194 13.7903 112.587V123.827H18.2457V112.587C18.2457 108.982 20.3673 107.285 23.1254 107.285C26.0956 107.285 27.5807 109.194 27.5807 112.587V123.827H32.4604ZM98.4419 103.47H91.2285V97.3183H86.7731V103.47H82.7421V107.5H86.7731V116.833C86.7731 121.499 88.6825 124.257 93.7744 124.257C95.6838 124.257 97.8054 123.62 99.2905 122.772L98.0175 118.954C96.7446 119.802 95.2595 120.014 94.1987 120.014C92.0771 120.014 91.2285 118.742 91.2285 116.621V107.5H98.4419V103.47ZM136.206 103.044C133.66 103.044 131.963 104.316 130.902 106.013V103.468H126.447V123.827H130.902V112.375C130.902 108.982 132.387 107.073 135.145 107.073C135.994 107.073 137.055 107.285 137.903 107.497L139.176 103.256C138.328 103.044 137.055 103.044 136.206 103.044ZM79.1354 105.165C77.0138 103.68 74.0436 103.044 70.8612 103.044C65.7694 103.044 62.3748 105.589 62.3748 109.618C62.3748 113.011 64.9207 114.92 69.3761 115.556L71.4977 115.768C73.8314 116.192 75.1044 116.828 75.1044 117.889C75.1044 119.373 73.4071 120.434 70.4369 120.434C67.4666 120.434 65.1329 119.373 63.6478 118.313L61.5262 121.706C63.8599 123.402 67.0423 124.251 70.2247 124.251C76.1651 124.251 79.5597 121.494 79.5597 117.677C79.5597 114.072 76.8016 112.163 72.5584 111.527L70.4369 111.315C68.5274 111.103 67.0423 110.678 67.0423 109.406C67.0423 107.922 68.5274 107.073 70.8612 107.073C73.4071 107.073 75.953 108.134 77.2259 108.77L79.1354 105.165ZM197.52 103.044C194.974 103.044 193.277 104.316 192.216 106.013V103.468H187.761V123.827H192.216V112.375C192.216 108.982 193.701 107.073 196.459 107.073C197.308 107.073 198.369 107.285 199.217 107.497L200.49 103.256C199.642 103.044 198.369 103.044 197.52 103.044ZM140.662 113.647C140.662 119.797 144.905 124.251 151.482 124.251C154.452 124.251 156.573 123.615 158.695 121.918L156.573 118.313C154.876 119.585 153.179 120.221 151.269 120.221C147.663 120.221 145.117 117.677 145.117 113.647C145.117 109.83 147.663 107.285 151.269 107.073C153.179 107.073 154.876 107.71 156.573 108.982L158.695 105.377C156.573 103.68 154.452 103.044 151.482 103.044C144.905 103.044 140.662 107.497 140.662 113.647ZM181.82 113.647V103.468H177.365V106.013C175.88 104.104 173.758 103.044 171 103.044C165.272 103.044 160.817 107.497 160.817 113.647C160.817 119.797 165.272 124.251 171 124.251C173.971 124.251 176.092 123.19 177.365 121.282V123.827H181.82V113.647ZM165.484 113.647C165.484 110.042 167.818 107.073 171.637 107.073C175.243 107.073 177.789 109.83 177.789 113.647C177.789 117.253 175.243 120.221 171.637 120.221C167.818 120.009 165.484 117.253 165.484 113.647ZM112.232 103.044C106.292 103.044 102.049 107.285 102.049 113.647C102.049 120.009 106.292 124.251 112.444 124.251C115.415 124.251 118.385 123.402 120.719 121.494L118.597 118.313C116.9 119.585 114.778 120.434 112.657 120.434C109.898 120.434 107.14 119.161 106.504 115.556H121.567V113.859C121.779 107.285 117.961 103.044 112.232 103.044ZM112.232 106.861C114.99 106.861 116.9 108.558 117.324 111.739H106.716C107.14 108.982 109.05 106.861 112.232 106.861ZM222.767 113.647V95.4097H218.312V106.013C216.827 104.104 214.705 103.044 211.947 103.044C206.219 103.044 201.763 107.497 201.763 113.647C201.763 119.797 206.219 124.251 211.947 124.251C214.917 124.251 217.039 123.19 218.312 121.282V123.827H222.767V113.647ZM206.431 113.647C206.431 110.042 208.765 107.073 212.584 107.073C216.19 107.073 218.736 109.83 218.736 113.647C218.736 117.253 216.19 120.221 212.584 120.221C208.765 120.009 206.431 117.253 206.431 113.647ZM57.4951 113.647V103.468H53.0398V106.013C51.5547 104.104 49.4331 103.044 46.675 103.044C40.9467 103.044 36.4914 107.497 36.4914 113.647C36.4914 119.797 40.9467 124.251 46.675 124.251C49.6453 124.251 51.7668 123.19 53.0398 121.282V123.827H57.4951V113.647ZM40.9467 113.647C40.9467 110.042 43.2805 107.073 47.0993 107.073C50.706 107.073 53.252 109.83 53.252 113.647C53.252 117.253 50.706 120.221 47.0993 120.221C43.2805 120.009 40.9467 117.253 40.9467 113.647Z" fill="#A08FBD"/>
<path fill-rule="evenodd" clip-rule="evenodd" d="M229.103 122.908V123.307H229.467C229.551 123.307 229.617 123.29 229.667 123.258C229.716 123.226 229.741 123.175 229.741 123.105C229.741 123.04 229.716 122.991 229.667 122.957C229.617 122.925 229.551 122.908 229.467 122.908H229.103ZM229.471 122.627C229.662 122.627 229.808 122.669 229.911 122.754C230.015 122.841 230.065 122.957 230.065 123.105C230.065 123.229 230.025 123.333 229.942 123.413C229.86 123.493 229.744 123.542 229.592 123.561L230.077 124.127H229.697L229.249 123.566H229.103V124.127H228.787V122.627H229.471ZM229.377 124.643C229.55 124.643 229.709 124.61 229.859 124.544C230.008 124.478 230.137 124.388 230.25 124.275C230.362 124.161 230.449 124.027 230.513 123.874C230.577 123.721 230.609 123.557 230.609 123.382C230.609 123.209 230.577 123.045 230.513 122.892C230.449 122.739 230.362 122.605 230.25 122.491C230.137 122.379 230.008 122.29 229.859 122.224C229.709 122.159 229.55 122.127 229.377 122.127C229.202 122.127 229.039 122.159 228.887 122.224C228.734 122.29 228.603 122.379 228.49 122.491C228.378 122.605 228.291 122.739 228.227 122.892C228.163 123.045 228.131 123.209 228.131 123.382C228.131 123.557 228.163 123.721 228.227 123.874C228.291 124.027 228.378 124.161 228.49 124.275C228.603 124.388 228.734 124.478 228.887 124.544C229.039 124.61 229.202 124.643 229.377 124.643ZM229.377 121.766C229.602 121.766 229.812 121.809 230.01 121.894C230.206 121.979 230.377 122.093 230.525 122.241C230.671 122.387 230.789 122.559 230.872 122.754C230.956 122.952 231 123.161 231 123.382C231 123.605 230.956 123.814 230.872 124.01C230.789 124.204 230.671 124.376 230.525 124.522C230.377 124.668 230.206 124.784 230.01 124.871C229.812 124.956 229.602 125 229.377 125C229.148 125 228.934 124.956 228.734 124.871C228.536 124.784 228.363 124.668 228.217 124.522C228.071 124.376 227.955 124.204 227.871 124.01C227.785 123.814 227.743 123.605 227.743 123.382C227.743 123.161 227.785 122.952 227.871 122.754C227.955 122.559 228.071 122.387 228.217 122.241C228.363 122.093 228.536 121.979 228.734 121.894C228.934 121.809 229.148 121.766 229.377 121.766Z" fill="black"/>
</svg>
