<svg width="380" height="128" viewBox="0 0 380 128" fill="none" xmlns="http://www.w3.org/2000/svg">
<path d="M80.3393 73.784L111.675 73.7207L110.538 80.869L84.3194 105.856H106.305L105.042 113.511H72.6948L74.0215 105.603L99.1029 81.5016H79.0757L80.3393 73.784Z" fill="#A08FBD"/>
<path d="M46.1585 61.5724C45.4636 60.8765 44.5159 60.3072 43.4419 59.8644C42.3047 59.4216 41.0412 59.1053 39.7776 58.8523C38.1982 58.5992 36.6819 58.4727 35.6079 58.4094C34.5971 58.3462 33.9653 58.3462 33.9653 58.3462H20.2559H10.0843L0.986816 113.508H9.51573L12.8641 93.0754L29.4166 93.1386C29.4166 93.1386 35.8606 93.3917 40.4094 90.9878C44.9581 88.584 46.2217 83.0804 46.2217 83.0804C46.2217 83.0804 46.7271 81.0562 47.1693 78.5258C47.6116 75.8057 48.117 72.5162 48.3065 70.7449C48.4329 69.9858 48.4961 69.4798 48.4961 69.4798C48.4961 69.4798 48.6224 68.9104 48.6224 68.0248C48.6224 66.8229 48.4329 64.9884 47.4852 63.2171C47.043 62.6478 46.6639 62.0785 46.1585 61.5724ZM39.5881 71.3143C39.5881 71.4408 38.83 75.8689 37.8191 81.1194C37.4401 83.1437 35.9238 84.2191 34.1548 84.5987C31.2487 85.2313 28.0898 85.1047 28.0898 85.1047L14.254 85.0415L17.2865 66.6964L29.7956 66.7596C29.7956 66.7596 30.6169 66.7596 31.8173 66.7596C33.144 66.7596 34.913 66.8229 36.4292 67.0127C37.6928 67.2024 38.7036 67.4555 39.0195 67.835C39.4617 68.3411 39.5881 69.037 39.6513 69.6695C39.7144 70.4919 39.5881 71.251 39.5881 71.3143Z" fill="#A08FBD"/>
<path d="M154.064 58.3462H162.277L153.116 113.508H144.903L154.064 58.3462Z" fill="#A08FBD"/>
<path d="M197.847 73.784L205.744 73.7207L208.524 101.744L220.59 73.7207H230.32L233.163 101.871L245.23 73.7207H253.443L236.069 113.511H226.403L223.623 85.6767L211.367 113.511H201.89L197.847 73.784Z" fill="#A08FBD"/>
<path d="M138.967 74.099C136.693 73.3399 132.713 73.2134 129.301 73.2134C126.016 73.2766 124.563 73.4031 123.299 73.6562C123.299 73.6562 117.487 74.4786 114.202 78.5904C110.916 82.7022 109.906 91.6217 109.906 91.6217C109.906 91.6217 107.947 101.49 108.516 104.78C109.084 108.069 110.095 111.106 113.823 112.56C117.55 114.015 120.709 113.952 120.709 113.952C120.709 113.952 127.342 114.458 132.333 113.32C137.324 112.181 139.978 108.638 139.978 108.638C139.978 108.638 141.178 107.12 142 105.286C142.821 103.451 143.074 102.249 143.137 102.059L143.642 99.9087H135.113C135.113 99.9087 134.671 105.539 130.059 106.045C125.447 106.551 123.046 106.361 122.099 106.298C121.214 106.235 116.286 106.488 116.666 102.376C116.666 102.313 116.666 102.249 116.666 102.123C116.855 97.4416 117.424 96.2396 117.424 96.2396L144.148 96.1764L145.285 89.5342C146.738 82.0064 145.79 76.3131 138.967 74.099ZM137.135 88.5853H118.814L119.508 85.6754C119.508 85.6754 120.14 83.3981 121.404 82.4492C122.667 81.5003 124.31 81.3105 125.826 81.184C127.342 81.0575 131.386 80.7412 134.734 81.437C135.808 81.6268 136.882 82.2594 137.135 83.2083C137.83 85.2958 137.135 88.5853 137.135 88.5853Z" fill="#A08FBD"/>
<path d="M116.853 102.187C116.853 102.25 116.853 102.314 116.853 102.377C116.789 102.694 116.853 102.187 116.853 102.187Z" fill="#A08FBD"/>
<path d="M189.317 74.099C187.043 73.3399 183.062 73.2134 179.651 73.2134C176.366 73.2766 174.913 73.4031 173.649 73.6562C173.649 73.6562 167.837 74.4786 164.551 78.5904C161.266 82.7022 160.255 91.6217 160.255 91.6217C160.255 91.6217 158.297 101.49 158.866 104.78C159.434 108.069 160.445 111.106 164.172 112.56C167.9 114.015 171.059 113.952 171.059 113.952C171.059 113.952 177.692 114.458 182.683 113.32C187.674 112.118 190.328 108.638 190.328 108.638C190.328 108.638 191.528 107.12 192.349 105.286C193.171 103.451 193.423 102.249 193.487 102.059L193.992 99.9087H185.463C185.463 99.9087 185.021 105.539 180.409 106.045C175.797 106.551 173.396 106.361 172.449 106.361C171.564 106.298 166.636 106.551 167.015 102.439C167.015 102.376 167.015 102.313 167.015 102.186C167.205 97.5048 167.773 96.3029 167.773 96.3029L194.497 96.2396L195.635 89.5975C197.088 82.0696 196.203 76.3131 189.317 74.099ZM187.485 88.5853H169.163L169.858 85.6754C169.858 85.6754 170.49 83.3981 171.754 82.4492C173.017 81.5003 174.66 81.3105 176.176 81.184C177.692 81.0575 181.736 80.7412 185.084 81.437C186.158 81.6268 187.232 82.2594 187.485 83.2083C188.18 85.2958 187.485 88.5853 187.485 88.5853Z" fill="#A08FBD"/>
<path d="M262.857 73.7842L268.101 102.883L282.948 73.7842L291.287 73.8475L269.87 115.409C269.87 115.409 266.016 122.936 263.616 124.834C261.215 126.732 259.762 127.618 257.803 127.807C255.845 127.997 255.023 128.124 253.191 127.807L251.17 127.428L252.433 120.027C252.433 120.027 255.782 120.659 257.74 119.837C259.699 119.078 261.278 115.662 261.278 115.662L262.289 113.954L254.518 73.6577L262.857 73.7842Z" fill="#A08FBD"/>
<path d="M294.381 77.7036H302.973L303.478 74.3509C303.478 74.3509 304.426 68.2781 306.448 67.1394C307.079 66.7598 308.153 66.4435 309.417 66.1905C311.691 65.811 314.534 65.7477 316.872 65.811C320.473 65.9375 321.8 66.0007 325.464 66.3803C329.128 66.8231 328.181 70.3023 328.181 70.3023L327.486 75.5528C327.486 75.5528 327.17 77.8934 326.348 79.3484C325.59 80.6768 323.569 81.5624 322.368 81.942C319.525 82.8909 309.796 85.358 309.796 85.358L302.152 87.572C302.152 87.572 297.476 88.9638 294.823 91.8104C292.17 94.7203 291.159 98.0098 290.78 99.781C290.401 101.489 288.379 113.445 288.379 113.445H329.634L331.024 105.221L298.424 105.285L298.993 101.932C298.993 101.932 299.372 98.4526 300.762 97.3139C301.204 96.9344 301.393 96.4916 304.047 95.5427C305.626 94.9734 310.933 93.5816 310.933 93.5816L323.253 90.2289C323.253 90.2289 329.949 88.5209 332.603 84.7887C335.256 81.1196 336.267 74.0979 336.267 74.0979C336.267 74.0979 336.962 67.2659 336.457 65.1151C335.888 62.9643 333.866 60.4339 331.466 59.2953C329.002 58.2199 326.475 57.524 319.02 57.6505C311.628 57.7771 307.901 58.0934 304.173 59.4851C300.383 60.8768 298.235 63.4071 296.845 66.9496C295.265 70.4289 294.381 77.7036 294.381 77.7036Z" fill="#6E5C8A"/>
<path d="M372.027 93.0756L377.839 58.4097H367.604L335.7 92.6961L334.247 101.363H362.108L360.086 113.572H368.678L370.7 101.363H378.597L379.987 93.0756H372.027ZM363.561 93.0756H345.555L367.478 69.6698L363.561 93.0756Z" fill="#6E5C8A"/>
<path d="M64.2278 62.9014H90.5095C90.5095 62.9014 96.385 58.157 100.555 55.0573C104.724 52.0208 112.369 47.1499 112.369 47.1499L97.5222 40.1914C97.5222 40.1914 84.9499 47.9723 79.643 51.6413C74.4625 55.0573 64.2278 62.9014 64.2278 62.9014Z" fill="#6E5C8A"/>
<path d="M120.644 42.2804L108.451 34.0567C108.451 34.0567 119.444 27.794 134.164 21.911C148.821 16.0911 156.655 13.624 156.655 13.624L159.119 25.2637C159.119 25.2637 145.03 30.0081 136.944 33.8036C128.604 37.4094 120.644 42.2804 120.644 42.2804Z" fill="#6E5C8A"/>
<path d="M168.154 22.7305L166.006 10.8379C166.006 10.8379 181.042 6.85254 194.814 4.25892C208.587 1.6653 226.845 0.463379 226.845 0.463379L220.78 18.8718C220.78 18.8718 204.733 16.6577 189.634 18.7452C177.946 20.1369 168.154 22.7305 168.154 22.7305Z" fill="#6E5C8A"/>
<path d="M230.385 20.456L240.556 0.0233247C240.556 0.0233247 262.794 -0.419488 282 2.55368C301.206 5.52686 318.769 10.0815 318.39 10.2713L269.681 35.7647C269.681 35.7647 258.309 28.5531 244.157 24.125C236.197 21.7844 230.385 20.456 230.385 20.456Z" fill="#6E5C8A"/>
<path d="M278.462 41.3329L289.139 49.4933H377.082C377.082 49.4933 376.892 46.6466 374.555 42.598C373.102 40.0677 370.448 37.4108 367.669 34.6274C366.658 33.6153 362.614 30.4523 359.582 28.4913C351.811 23.4306 347.452 21.4695 339.428 17.8638L278.462 41.3329Z" fill="#6E5C8A"/>
<path d="M69.9123 73.7207C66.6271 73.7207 63.4682 75.0491 60.8148 76.5041L61.257 73.7207H52.5385L45.5259 113.321H54.3075L58.1613 91.37C58.9826 86.9418 62.2678 81.4383 68.7751 81.4383H73.3238L74.7137 73.7207H69.9123V73.7207Z" fill="#A08FBD"/>
</svg>
