<svg width="609" height="108" viewBox="0 0 609 108" fill="none" xmlns="http://www.w3.org/2000/svg">
<path d="M112.494 48.5641C112.427 46.4784 111.444 45.4019 109.535 45.3312H99.3381C96.9247 45.479 95.6778 46.803 95.62 49.2935V67.6335C95.6778 70.2044 97.0564 71.5155 99.7366 71.5894H109.082C110.052 71.5894 110.859 71.2295 111.501 70.4936C112.173 69.9408 112.494 69.2306 112.494 68.3501V48.5641ZM82.5278 45.9611C82.5953 41.3721 83.6172 37.8853 85.6 35.5008C86.638 34.5014 87.9363 33.6659 89.5174 32.9749C91.1595 32.239 92.7502 31.8823 94.2928 31.8823H113.009C121.264 31.953 125.461 36.4681 125.593 45.4372V73.042C125.532 76.2266 124.285 78.9903 121.875 81.3009C119.487 83.7303 116.637 84.9676 113.317 85.0415H95.62V104.943H82.5278V45.9611Z" fill="#A08FBD"/>
<path d="M149.226 68.9254C149.226 69.6934 149.579 70.3008 150.27 70.7571C150.887 71.3034 151.665 71.5894 152.648 71.5894H162.704C164.976 71.5894 166.155 70.7089 166.222 68.9254V65.1719C166.222 63.1216 165.024 62.0868 162.607 62.0868H152.648C151.337 62.0868 150.431 62.3054 149.926 62.7167C149.46 63.202 149.226 64.1628 149.226 65.5864V68.9254ZM166.222 48.2395C166.29 46.2278 165.117 45.2669 162.7 45.3312H136.333V31.8823H166.02C174.668 32.0237 179.058 36.2014 179.205 44.4507V72.5856C179.131 76.1431 178.042 79.0771 175.927 81.4102C173.717 83.8268 170.866 85.0415 167.373 85.0415H149.428C140.694 84.9676 136.265 80.9795 136.13 73.0516V62.1961C136.198 53.9115 140.43 49.7017 148.808 49.5571H166.222V48.2395Z" fill="#A08FBD"/>
<path d="M215.975 91.4912C217.013 91.4269 217.913 91.0541 218.642 90.3857C219.343 89.7623 219.696 89.0456 219.696 88.2326V85.0415H202.934C200.749 85.0415 199.001 84.7619 197.696 84.206C196.318 83.7014 194.945 82.7598 193.564 81.423C192.256 80.0058 191.314 78.5243 190.742 76.9754C190.148 75.5582 189.845 73.7554 189.845 71.5894V31.8823H202.934V67.3282C202.934 70.169 204.094 71.5894 206.444 71.5894H215.686C216.785 71.5894 217.739 71.2295 218.54 70.4936C219.311 69.8701 219.696 69.131 219.696 68.2633V31.8823H232.679V90.4596C232.605 94.7947 231.493 98.2654 229.35 100.897C227.174 103.529 224.199 104.876 220.403 104.943H189.845V91.4912H215.975Z" fill="#A08FBD"/>
<path d="M242.959 71.5894H266.287C268.421 71.5155 269.529 70.6607 269.597 69.0218V67.8135C269.597 67.4632 269.491 67.0743 269.285 66.6566C268.765 65.6411 268.125 65.1365 267.363 65.1365H255.798C252.366 65.069 249.438 63.8865 246.976 61.6048C244.486 59.4967 243.21 56.9033 243.136 53.8601V43.8304C243.271 36.0054 247.523 32.0237 255.897 31.8823H282.953V45.3312H260.03C257.34 45.3312 255.984 46.1571 255.984 47.8024V49.1039C255.984 50.8104 257.369 51.6652 260.13 51.6652H271.66C274.732 51.7359 277.351 52.9121 279.533 55.2065C281.738 57.5171 282.882 60.2647 282.953 63.4558V73.2669C282.882 76.0242 281.606 78.775 279.154 81.5194C277.959 82.8659 276.734 83.7914 275.51 84.3152C274.244 84.7973 272.524 85.0415 270.33 85.0415H242.959V71.5894Z" fill="#A08FBD"/>
<path d="M305.355 68.9254C305.355 69.6934 305.708 70.3008 306.415 70.7571C307.026 71.3034 307.807 71.5894 308.777 71.5894H318.852C321.124 71.5894 322.297 70.7089 322.364 68.9254V65.1719C322.364 63.1216 321.149 62.0868 318.742 62.0868H308.777C307.469 62.0868 306.566 62.3054 306.065 62.7167C305.599 63.202 305.355 64.1628 305.355 65.5864V68.9254ZM322.364 48.2395C322.422 46.2278 321.249 45.2669 318.829 45.3312H292.468V31.8823H322.165C330.803 32.0237 335.196 36.2014 335.331 44.4507V72.5856C335.26 76.1431 334.161 79.0771 332.06 81.4102C329.865 83.8268 327.011 85.0415 323.515 85.0415H305.554C296.826 84.9676 292.394 80.9795 292.272 73.0516V62.1961C292.33 53.9115 296.559 49.7017 304.943 49.5571H322.364V48.2395Z" fill="#A08FBD"/>
<path d="M345.974 24.2566C346.054 20.6253 347.391 17.7105 350.014 15.5253C352.559 13.3047 355.901 12.1639 360.034 12.0996H368.347V25.0921H363.311C360.545 25.1564 359.134 26.4804 359.073 29.0384V31.8857H368.347V45.3474H359.073V85.0481H345.974V24.2566Z" fill="#A08FBD"/>
<path d="M405.58 47.9888V47.6771C405.58 46.9862 405.3 46.3981 404.738 45.9611C404.127 45.5369 403.382 45.3312 402.485 45.3312H393.371C392.202 45.3312 391.26 45.659 390.531 46.3306C389.624 46.9508 389.165 47.7671 389.165 48.7729V54.1718L405.58 47.9888ZM389.374 67.0004V67.8392C389.374 68.9157 389.653 69.7705 390.222 70.3908C390.633 71.1845 391.186 71.5894 391.922 71.5894H418.817V85.0415H390.222C387.613 85.0415 385.578 84.7973 384.142 84.3088C382.571 83.7914 381.16 82.9462 379.929 81.7701C378.489 80.3465 377.509 78.8971 377.017 77.406C376.478 75.8506 376.211 73.7875 376.211 71.2166L376.098 44.2964C376.243 36.1628 380.491 32.0237 388.84 31.8823H406.489C414.642 32.0237 418.772 36.3074 418.903 44.756V55.3897L389.374 67.0004Z" fill="#A08FBD"/>
<path d="M446.617 85.0414C444.635 85.0414 442.825 84.8582 441.183 84.524C439.464 84.2444 437.751 83.4474 436 82.1009C434.203 80.5359 432.96 78.7813 432.278 76.8435C431.559 74.9379 431.211 72.7783 431.211 70.3489V45.2475C431.138 43.2005 431.343 41.4041 431.822 39.8455C432.262 38.2901 433.188 36.7669 434.586 35.2758C436.18 33.7108 437.806 32.6696 439.522 32.1586C441.174 31.744 443.034 31.5352 445.12 31.5352H465.185V34.6813H445.586C442.125 34.6813 439.406 35.3915 437.417 36.8151C435.383 38.3672 434.345 41.0442 434.345 44.8169V69.9343C434.345 71.7018 434.615 73.4211 435.151 75.0793C435.701 76.7085 436.617 78.1386 437.931 79.3887C439.358 80.4717 440.778 81.1465 442.163 81.4229C443.606 81.741 445.155 81.8921 446.797 81.8921H465.5V85.0414H446.617Z" fill="#6E5C8A"/>
<path d="M516.792 52.4749H490.486C487.337 52.5456 484.869 53.5193 483.092 55.396C481.253 57.3017 480.344 59.9143 480.344 63.234V71.2454C480.344 72.7976 480.505 74.218 480.839 75.497C481.17 76.8435 481.996 78.0454 483.3 79.0769C485.572 80.9601 488.089 81.892 490.84 81.892H506.779C513.441 81.8213 516.792 78.3121 516.792 71.345V52.4749ZM519.919 70.5609C519.919 72.5823 519.765 74.3562 519.505 75.918C519.081 77.6147 518.21 79.2505 516.889 80.8058C514.141 83.7013 510.735 85.112 506.67 85.0413H491.029C486.964 85.0413 483.67 83.8266 481.118 81.41C478.512 79.0223 477.191 75.7027 477.191 71.4447V63.3529C477.323 54.2231 481.87 49.5473 490.83 49.3352H516.889V45.7938C516.889 42.8759 516.044 40.3211 514.363 38.123C513.296 36.6962 512.033 35.7417 510.6 35.2501C509.151 34.8709 507.524 34.6813 505.712 34.6813H477.285V31.5352H504.234C506.699 31.5352 508.926 31.7087 510.944 32.0493C511.982 32.255 512.923 32.6599 513.794 33.2448C514.716 33.8007 515.578 34.6138 516.375 35.6807C518.791 38.7979 519.971 42.3939 519.919 46.443V70.5609Z" fill="#6E5C8A"/>
<path d="M549.336 34.6813C542.042 34.8162 538.445 38.7979 538.58 46.6326V85.0414H535.447V46.6454C535.299 36.5676 540.097 31.5352 549.841 31.5352H553.325V34.6813H549.336Z" fill="#6E5C8A"/>
<path d="M602.328 34.6979H577.532C575.746 34.6979 574.145 34.8972 572.702 35.2764C571.192 35.617 569.733 36.5329 568.367 38.024C567.059 39.3833 566.237 40.7298 565.893 42.0763C565.433 43.4357 565.224 45.0649 565.298 46.9642V71.4517C565.298 75.5233 566.478 78.2934 568.868 79.7813C570.048 80.4723 571.343 80.9896 572.795 81.3367C574.242 81.7223 575.855 81.9119 577.632 81.9119H588.474C592.524 81.9119 595.837 80.98 598.382 79.1001C600.94 77.3358 602.241 74.2925 602.328 69.9542V34.6979ZM605.458 70.1695C605.182 80.3051 599.818 85.2734 589.371 85.0645H577.748C575.292 85.0645 573.098 84.8492 571.157 84.441C569.158 83.9236 567.246 82.7057 565.404 80.8065C564.019 79.1001 563.129 77.3744 562.772 75.6069C562.294 73.8426 562.085 71.8791 562.159 69.7357V46.8838C562.294 36.5907 567.477 31.4747 577.722 31.5518H602.328V14.2017H605.458V70.1695Z" fill="#6E5C8A"/>
<path d="M9.8043 29.8612C10.8326 29.4081 11.861 29.0546 12.8893 28.8328C14.7789 19.8091 22.7711 13.0413 32.3508 13.0413C41.9369 13.0413 49.9323 19.8187 51.8187 28.8393C54.7591 29.3984 57.1918 30.5874 59.0878 32.3581C59.165 30.626 59.0943 28.9582 58.8886 27.3867C57.6771 13.7547 46.2464 3.05664 32.309 3.05664C17.9604 3.05664 6.27899 14.4295 5.67162 28.6464C5.58807 29.874 5.56237 31.153 5.60736 32.4899C6.81245 31.4744 8.18787 30.5617 9.8043 29.8612Z" fill="#A08FBD"/>
<path d="M47.9269 31.8823H15.9517C14.4124 31.8823 12.8185 32.239 11.1764 32.9749C9.59206 33.6659 8.29377 34.5014 7.25257 35.5008C5.26979 37.8853 4.25429 41.3721 4.18359 45.9611V70.9563C4.25429 75.555 5.26979 79.0385 7.25257 81.4102C8.29377 82.4256 9.59206 83.2612 11.1764 83.9585C12.8185 84.6784 14.4124 85.0415 15.9517 85.0415H47.9269C56.1859 84.9676 60.386 80.4364 60.5178 71.4802V45.4372C60.386 36.4681 56.1859 31.953 47.9269 31.8823Z" fill="#A08FBD"/>
</svg>
