<svg width="231" height="72" viewBox="0 0 231 72" fill="none" xmlns="http://www.w3.org/2000/svg">
<path fill-rule="evenodd" clip-rule="evenodd" d="M65.6118 0L47.5907 49.5202L45.4604 38.8562L45.4624 38.86L39.1006 6.4847C39.1006 6.4847 38.3336 0 30.1348 0H28.4871H0.347604H0.328599L0 1.21436C0 1.21436 0.000255417 1.21441 0.000765098 1.21453L0 1.21721C0 1.21721 0.0807705 1.23387 0.235997 1.26936C1.75055 1.63496 10.3472 3.89749 19.9801 10.2556L36.1897 72H55.8827L85.9534 0H65.6118ZM100.416 72H80.5817L92.9779 0H112.814L100.416 72ZM201.024 22.1538L190.709 49.8462H206.826L201.024 22.1538ZM216.493 0L231 72H208.989L206.865 61.3071H183.828L180.049 72H161.163L188.187 5.36572C188.187 5.36572 189.823 0 196.552 0H216.493ZM163.972 17.9716L166.535 3.03279C166.535 3.03279 158.622 0 150.373 0C141.456 0 120.282 3.92961 120.282 23.0269C120.282 33.4478 128.638 37.9012 135.659 41.6433C140.747 44.3548 145.134 46.6928 145.134 50.6569C145.134 60.0921 122.843 58.4064 115.487 52.4543L112.814 68.0704C112.814 68.0704 120.836 72 133.098 72C145.359 72 163.86 65.5976 163.86 48.1861C163.86 37.2873 154.752 32.345 147.515 28.4172C142.742 25.8274 138.783 23.6786 138.783 20.5542C138.783 12.6912 156.283 13.7015 163.972 17.9716Z" fill="#A08FBD"/>
</svg>
