<?xml version="1.0" standalone="no"?>
<!DOCTYPE svg PUBLIC "-//W3C//DTD SVG 20010904//EN"
 "http://www.w3.org/TR/2001/REC-SVG-20010904/DTD/svg10.dtd">
<svg version="1.0" xmlns="http://www.w3.org/2000/svg"
 width="300.000000pt" height="100.000000pt" viewBox="0 0 300.000000 100.000000"
 preserveAspectRatio="xMidYMid meet">
<metadata>
Created by potrace 1.10, written by Peter Selinger 2001-2011
</metadata>
<g transform="translate(0.000000,100.000000) scale(0.100000,-0.100000)"
fill="#000000" stroke="none">
<path d="M690 892 c8 -6 151 -60 316 -121 166 -61 348 -129 405 -151 l102 -40
324 97 324 96 -6 26 c-4 14 -8 28 -11 30 -2 2 -141 -37 -309 -87 -167 -51
-311 -92 -319 -92 -11 0 -678 199 -821 245 -15 5 -17 4 -5 -3z"/>
<path d="M2240 861 c-48 -15 -55 -20 -52 -41 1 -13 4 -26 7 -28 8 -8 133 39
149 57 16 17 16 19 1 25 -24 9 -44 7 -105 -13z"/>
<path d="M656 428 c-2 -7 -14 -71 -26 -143 -12 -72 -24 -140 -27 -152 -5 -21
-1 -23 29 -23 l35 0 9 67 9 67 53 -67 52 -67 68 0 67 0 24 138 c12 75 25 149
28 165 5 25 3 27 -25 27 -37 0 -34 7 -63 -178 -13 -78 -26 -141 -30 -140 -4 2
-28 29 -53 61 -45 55 -46 57 -22 57 33 0 37 9 56 112 l17 88 -99 0 c-70 0
-100 -4 -102 -12z m120 -88 c-10 -49 -11 -50 -47 -50 l-36 0 10 50 c9 49 10
50 47 50 l37 0 -11 -50z"/>
<path d="M1048 423 c-8 -10 -25 -78 -37 -151 -29 -165 -29 -164 83 -160 l81 3
11 53 12 52 -33 0 c-29 0 -34 -4 -37 -27 -3 -24 -8 -28 -40 -31 l-38 -3 7 33
c4 18 14 69 22 113 16 80 16 80 50 83 33 3 33 3 27 -31 -6 -34 -6 -35 26 -32
30 2 34 6 40 41 14 77 17 74 -75 74 -68 0 -87 -3 -99 -17z"/>
<path d="M1287 428 c-21 -17 -69 -275 -56 -300 8 -15 23 -18 87 -18 42 0 82 4
89 8 9 6 63 270 63 310 0 17 -161 16 -183 0z m112 -55 c0 -10 -8 -61 -18 -113
l-17 -95 -37 -3 c-43 -4 -42 -9 -21 112 21 121 18 116 59 116 27 0 35 -4 34
-17z"/>
<path d="M1528 423 c-9 -10 -25 -75 -38 -150 -28 -163 -28 -163 75 -163 82 0
89 5 103 68 l10 42 -33 0 c-29 0 -34 -4 -37 -27 -3 -25 -8 -28 -41 -31 -34 -3
-38 -1 -33 15 3 10 12 57 20 106 8 48 18 92 21 97 3 6 20 10 37 10 29 0 30 -1
24 -34 -6 -33 -6 -34 26 -31 30 2 34 6 40 41 14 77 17 74 -75 74 -67 0 -87 -3
-99 -17z"/>
<path d="M1755 428 c-4 -13 -55 -302 -55 -312 0 -3 13 -6 29 -6 31 0 31 -1 47
93 6 35 8 37 45 37 36 0 39 -2 34 -22 -3 -13 -9 -42 -14 -66 l-9 -42 32 0 33
0 26 153 c15 85 27 159 27 165 0 7 -13 12 -29 12 -28 0 -30 -2 -41 -70 l-12
-70 -38 0 -38 0 14 63 c7 34 13 65 14 70 0 12 -60 8 -65 -5z"/>
<path d="M2004 425 c-4 -11 -54 -298 -54 -308 0 -4 36 -7 81 -7 72 0 84 3 111
25 l30 25 -77 0 -77 0 6 31 c3 17 6 38 6 45 0 10 14 14 50 14 28 0 50 4 50 9
0 5 3 16 6 25 5 13 -2 16 -45 16 -51 0 -51 0 -45 28 3 15 7 33 10 40 2 8 31
12 100 12 95 0 96 0 91 -22 -3 -13 -13 -66 -22 -118 -9 -52 -18 -103 -21 -112
-4 -15 1 -18 29 -18 33 0 35 2 40 45 4 25 14 86 23 135 l17 90 31 0 c22 0 41
9 59 28 l26 27 -211 0 c-131 0 -212 -4 -214 -10z"/>
</g>
</svg>
