<svg viewBox="0 0 20 20" fill="none" xmlns="http://www.w3.org/2000/svg"><path d="M10 1c-.466 0-.933.06-1.38.128-.072 1.146-.252 2.265-1.202 2.659-.953.395-1.848-.286-2.71-1.048a9.164 9.164 0 0 0-1.995 1.968c.766.865 1.47 1.755 1.074 2.71-.395.955-1.533 1.132-2.685 1.202C1.032 9.072 1 9.53 1 10c0 .478.03.948.102 1.406 1.152.07 2.29.196 2.685 1.15.396.957-.308 1.897-1.074 2.762.549.748 1.246 1.396 1.995 1.943.86-.759 1.76-1.416 2.71-1.022.954.395 1.13 1.507 1.201 2.659a9.19 9.19 0 0 0 2.736 0c.07-1.152.247-2.264 1.202-2.66.95-.393 1.85.264 2.71 1.023.749-.547 1.446-1.195 1.994-1.943-.765-.865-1.47-1.805-1.074-2.761.396-.955 1.559-1.08 2.71-1.15.072-.459.103-.93.103-1.407 0-.472-.032-.928-.102-1.38-1.152-.071-2.315-.248-2.71-1.202-.396-.956.308-1.846 1.073-2.71a9.166 9.166 0 0 0-1.994-1.97c-.862.763-1.758 1.444-2.71 1.049-.95-.394-1.13-1.513-1.202-2.66A8.848 8.848 0 0 0 10 1Zm0 6.06A2.937 2.937 0 0 1 12.94 10 2.937 2.937 0 0 1 10 12.94c-1.626 0-2.966-1.314-2.966-2.94S8.374 7.06 10 7.06Z" fill="#342A41" stroke="#6C5B87" stroke-linecap="square" stroke-linejoin="bevel"/></svg>